<?xml version="1.0" encoding="UTF-8" standalone="no"?>
<!DOCTYPE svg PUBLIC "-//W3C//DTD SVG 1.1//EN" "http://www.w3.org/Graphics/SVG/1.1/DTD/svg11.dtd">
<svg width="100%" height="100%" viewBox="0 0 414 197" version="1.1" xmlns="http://www.w3.org/2000/svg" xmlns:xlink="http://www.w3.org/1999/xlink" xml:space="preserve" xmlns:serif="http://www.serif.com/" style="fill-rule:evenodd;clip-rule:evenodd;stroke-linejoin:round;stroke-miterlimit:2;">
    <g transform="matrix(1,0,0,1,-657.854,-1004.99)">
        <g transform="matrix(1,0,0,1,356.165,-378.643)">
            <g transform="matrix(1,0,0,1,-13.7172,288.83)">
                <path d="M564.953,1214.93C560.992,1214.93 558.171,1214.19 556.489,1212.71C554.808,1211.23 553.967,1208.74 553.967,1205.24L553.967,1154.3L560.884,1154.3L560.884,1204.51C560.884,1206.33 561.176,1207.53 561.759,1208.11C562.342,1208.7 563.515,1208.99 565.278,1208.99L566.947,1208.99L566.947,1214.93L564.953,1214.93Z" style="fill:rgb(38,38,38);fill-rule:nonzero;"/>
                <path d="M572.258,1214.93L572.258,1171.96L579.175,1171.96L579.175,1214.93L572.258,1214.93ZM575.716,1163.58C574.414,1163.58 573.302,1163.12 572.38,1162.19C571.457,1161.27 570.996,1160.16 570.996,1158.86C570.996,1157.56 571.457,1156.44 572.38,1155.52C573.302,1154.6 574.414,1154.14 575.716,1154.14C577.018,1154.14 578.131,1154.6 579.053,1155.52C579.975,1156.44 580.436,1157.56 580.436,1158.86C580.436,1160.16 579.975,1161.27 579.053,1162.19C578.131,1163.12 577.018,1163.58 575.716,1163.58Z" style="fill:rgb(38,38,38);fill-rule:nonzero;"/>
                <g transform="matrix(1,0,0,1,-2,0)">
                    <path d="M603.569,1215.9C600.504,1215.9 597.724,1215.4 595.228,1214.4C592.732,1213.4 590.711,1211.87 589.165,1209.82C587.619,1207.77 586.751,1205.19 586.561,1202.07L593.397,1202.07C593.885,1207.33 597.222,1209.96 603.407,1209.96C606.391,1209.96 608.744,1209.34 610.466,1208.09C612.189,1206.85 613.05,1205.27 613.05,1203.37C613.05,1201.75 612.453,1200.44 611.26,1199.47C610.066,1198.49 608.507,1197.78 606.581,1197.35L599.663,1195.72C591.579,1193.82 587.538,1189.76 587.538,1183.52C587.538,1181.07 588.195,1178.91 589.511,1177.03C590.827,1175.14 592.658,1173.66 595.004,1172.59C597.351,1171.52 600.057,1170.98 603.122,1170.98C606.106,1170.98 608.785,1171.55 611.158,1172.67C613.532,1173.8 615.417,1175.39 616.814,1177.45C618.211,1179.52 618.95,1181.97 619.032,1184.82L612.277,1184.82C612.25,1182.54 611.409,1180.65 609.754,1179.16C608.1,1177.67 605.889,1176.92 603.122,1176.92C600.491,1176.92 598.388,1177.56 596.815,1178.84C595.242,1180.11 594.455,1181.67 594.455,1183.52C594.455,1185.14 595.052,1186.45 596.245,1187.44C597.439,1188.43 599.066,1189.17 601.128,1189.66L608.045,1191.29C612.169,1192.26 615.193,1193.72 617.119,1195.66C619.045,1197.6 620.008,1200.12 620.008,1203.21C620.008,1205.87 619.289,1208.15 617.852,1210.05C616.414,1211.94 614.454,1213.4 611.972,1214.4C609.49,1215.4 606.689,1215.9 603.569,1215.9Z" style="fill:rgb(38,38,38);fill-rule:nonzero;"/>
                </g>
                <g transform="matrix(1,0,0,1,-3,0)">
                    <path d="M646.885,1171.96L646.885,1177.9L638.177,1177.9L638.177,1204.51C638.177,1206.17 638.523,1207.33 639.215,1207.99C639.907,1208.65 641.134,1208.99 642.897,1208.99L646.885,1208.99L646.885,1214.93L642.246,1214.93C634.922,1214.93 631.26,1211.7 631.26,1205.24L631.26,1177.9L623.61,1177.9L623.61,1171.96L631.26,1171.96L631.26,1160.24L638.177,1160.24L638.177,1171.96L646.885,1171.96Z" style="fill:rgb(38,38,38);fill-rule:nonzero;"/>
                </g>
                <g transform="matrix(1,0,0,1,-3,0)">
                    <path d="M668.157,1233.19L662.053,1230.95L668.39,1214.56L651.748,1171.96L659.235,1171.96L668.512,1196.7C669.109,1198.3 669.699,1199.91 670.283,1201.52C670.866,1203.13 671.429,1204.74 671.971,1206.34C672.541,1204.74 673.117,1203.13 673.7,1201.52C674.284,1199.91 674.874,1198.3 675.471,1196.7L684.585,1171.96L691.95,1171.96L668.157,1233.19Z" style="fill:rgb(38,38,38);fill-rule:nonzero;"/>
                </g>
                <g transform="matrix(1,0,0,1,-4,0)">
                    <path d="M704.382,1189.78L704.382,1214.93L697.464,1214.93L697.464,1171.96L704.219,1171.96L704.219,1178.27C705.711,1175.83 707.535,1174.03 709.692,1172.88C711.848,1171.72 714.283,1171.15 716.996,1171.15C719.898,1171.15 722.543,1171.78 724.93,1173.04C727.317,1174.3 729.223,1176.19 730.647,1178.71C732.071,1181.24 732.783,1184.41 732.783,1188.24L732.783,1214.93L725.866,1214.93L725.866,1188.72C725.866,1185.01 724.978,1182.21 723.201,1180.32C721.424,1178.44 718.922,1177.49 715.693,1177.49C712.574,1177.49 709.909,1178.46 707.698,1180.38C705.487,1182.31 704.382,1185.44 704.382,1189.78Z" style="fill:rgb(38,38,38);fill-rule:nonzero;"/>
                </g>
            </g>
            <g transform="matrix(1,0,0,1,-344.281,231.7)">
                <g transform="matrix(1,0,0,1,0,0.0591023)">
                    <path d="M842.325,1200.96L842.325,1299.14C842.325,1326.23 820.329,1348.22 793.236,1348.22L695.059,1348.22C667.967,1348.22 645.971,1326.23 645.971,1299.14L645.971,1200.96C645.971,1173.87 667.967,1151.87 695.059,1151.87L793.236,1151.87C820.329,1151.87 842.325,1173.87 842.325,1200.96Z" style="fill:rgb(230,230,230);"/>
                </g>
                <g transform="matrix(1,0,0,1,0,-30)">
                    <g transform="matrix(1,0,0,1,0,20)">
                        <path d="M645.971,1281.12L645.971,1272.84C646.104,1272.83 646.24,1272.82 646.377,1272.82C656.358,1272.66 663.871,1261.5 670.995,1256.05C677.001,1251.44 682.83,1247.91 688.883,1247.91C692.617,1247.91 696.396,1249.6 700.077,1252.62C704.536,1256.27 708.994,1261.96 713.416,1267.72C717.442,1272.97 721.436,1278.27 725.491,1281.75C727.533,1283.5 729.501,1284.81 731.571,1284.94C735.861,1285.2 739.035,1282.38 741.954,1278.47C745.664,1273.51 748.778,1266.74 751.977,1259.94C756.169,1251.02 760.519,1242.07 766.038,1236.25C770.355,1231.69 775.384,1228.92 781.405,1228.82C784.941,1228.76 788.162,1230.35 791.064,1233.43C794.281,1236.84 797.206,1242.32 800.201,1248.48C803.563,1255.4 807.089,1263.24 811.717,1269.37C815.701,1274.65 820.483,1278.67 827.065,1278.82C833.217,1278.95 836.297,1273.81 837.672,1271.78C838.317,1270.83 838.854,1270.2 839.164,1269.92L839.97,1269.36L841.032,1268.94C841.466,1268.83 841.901,1268.8 842.325,1268.83L842.325,1279.31C839.307,1282.69 833.886,1287.3 826.884,1287.15C819.39,1286.99 813.374,1283.57 808.384,1278.33C801.791,1271.4 797.058,1261.09 792.705,1252.13C790.524,1247.64 788.455,1243.52 786.19,1240.56C784.728,1238.64 783.391,1237.12 781.548,1237.15C776.71,1237.23 773.081,1240.37 769.852,1244.63C765.934,1249.81 762.715,1256.68 759.518,1263.49C755.321,1272.41 751.124,1281.2 745.927,1286.69C741.721,1291.13 736.859,1293.61 731.068,1293.26C727.401,1293.03 723.685,1291.18 720.068,1288.08C715.635,1284.28 711.206,1278.53 706.806,1272.8C702.803,1267.58 698.833,1262.37 694.795,1259.07C692.81,1257.44 690.897,1256.24 688.883,1256.24C686.34,1256.24 683.927,1257.35 681.462,1258.86C678.411,1260.72 675.35,1263.22 672.128,1265.72C664.735,1271.44 656.54,1280.99 646.508,1281.15C646.326,1281.15 646.147,1281.14 645.971,1281.12Z" style="fill:rgb(238,180,45);"/>
                    </g>
                    <g transform="matrix(1,0,0,1,0,20)">
                        <path d="M645.971,1276.91L645.971,1268.7C646.199,1268.66 646.434,1268.64 646.673,1268.64C648.256,1268.64 649.803,1267.83 651.404,1266.8C653.596,1265.39 655.787,1263.51 657.987,1261.63C661.032,1259.04 664.097,1256.48 667.124,1254.82C669.655,1253.43 672.199,1252.64 674.705,1252.64C681.23,1252.64 686.506,1257.01 691.572,1261.77C693.525,1263.6 695.463,1265.45 697.556,1266.82C699.149,1267.87 700.824,1268.64 702.738,1268.64C704.366,1268.64 705.931,1267.83 707.532,1266.8C709.71,1265.4 711.866,1263.52 714.032,1261.65C717.046,1259.05 720.082,1256.48 723.121,1254.82C725.647,1253.43 728.207,1252.64 730.77,1252.64C736.858,1252.64 742.327,1256.98 747.577,1261.71C749.628,1263.56 751.667,1265.43 753.8,1266.81C755.397,1267.85 757.021,1268.64 758.802,1268.64C759.636,1268.64 760.59,1268.11 761.7,1267.5C764.325,1266.04 767.307,1263.76 770.3,1261.49C773.633,1258.96 776.977,1256.44 779.9,1254.83C782.492,1253.39 784.888,1252.64 786.835,1252.64C789.354,1252.64 791.902,1253.43 794.432,1254.82C797.462,1256.48 800.52,1259.04 803.557,1261.64C805.749,1263.51 807.932,1265.39 810.121,1266.8C811.722,1267.83 813.274,1268.64 814.867,1268.64C816.432,1268.64 817.973,1267.82 819.575,1266.8C821.771,1265.39 823.976,1263.5 826.189,1261.63C829.245,1259.04 832.321,1256.47 835.344,1254.82C837.682,1253.53 840.025,1252.76 842.325,1252.65L842.325,1261.01C840.956,1261.18 839.598,1261.91 838.192,1262.82C835.995,1264.22 833.791,1266.11 831.577,1267.99C828.521,1270.58 825.445,1273.14 822.422,1274.8C819.889,1276.18 817.351,1276.97 814.867,1276.97C812.348,1276.97 809.8,1276.18 807.27,1274.8C804.24,1273.13 801.182,1270.57 798.144,1267.97C795.952,1266.1 793.769,1264.22 791.581,1262.81C789.98,1261.79 788.428,1260.97 786.835,1260.97C786.001,1260.97 785.047,1261.5 783.937,1262.12C781.312,1263.57 778.33,1265.86 775.337,1268.12C772.004,1270.65 768.661,1273.17 765.737,1274.79C763.146,1276.22 760.749,1276.97 758.802,1276.97C752.714,1276.97 747.245,1272.63 741.996,1267.9C739.945,1266.05 737.905,1264.19 735.772,1262.8C734.175,1261.76 732.551,1260.97 730.77,1260.97C729.142,1260.97 727.577,1261.78 725.976,1262.81C723.798,1264.21 721.641,1266.09 719.476,1267.96C716.462,1270.56 713.426,1273.13 710.387,1274.8C707.861,1276.18 705.301,1276.97 702.738,1276.97C696.213,1276.97 690.937,1272.6 685.87,1267.85C683.918,1266.01 681.98,1264.16 679.887,1262.79C678.294,1261.74 676.619,1260.97 674.705,1260.97C673.122,1260.97 671.575,1261.79 669.974,1262.81C667.782,1264.22 665.591,1266.1 663.391,1267.98C660.346,1270.57 657.281,1273.14 654.254,1274.8C651.723,1276.18 649.179,1276.97 646.673,1276.97C646.434,1276.97 646.199,1276.95 645.971,1276.91Z" style="fill:rgb(9,103,135);"/>
                    </g>
                </g>
                <g transform="matrix(1,0,0,1,-451.03,245.916)">
                    <path d="M1145.5,1013.71C1141.61,1015.34 1139.93,1017.14 1139.11,1020.34C1138.62,1022.23 1138.97,1025.28 1139.19,1028.36C1139.42,1031.74 1139.57,1035.17 1140.28,1037.36C1141.83,1042.1 1147.05,1046.58 1148.86,1044.86C1149.17,1044.56 1149.93,1044.33 1149.67,1043.33C1148.86,1040.3 1147.73,1032.9 1147.42,1029.28C1146.88,1023.02 1146.85,1017.7 1147.16,1013.92C1147.2,1013.41 1146.13,1013.44 1145.5,1013.71Z" style="fill:rgb(0,45,60);"/>
                    <g transform="matrix(1,0,0,1,-0.014562,0.19812)">
                        <path d="M1166.38,1002.82C1168.52,1004.82 1173.45,1045.48 1169.35,1052.64C1167.63,1055.63 1155.4,1052.78 1154.02,1050.74C1148.64,1042.77 1147.58,1010.58 1149.84,1007.31C1153.4,1002.16 1163.67,1000.28 1166.38,1002.82Z" style="fill:rgb(0,45,60);"/>
                    </g>
                    <path d="M1195,953.264C1195,953.264 1172.62,952.162 1157.06,972.032C1143.92,988.802 1147.11,1003.91 1147.51,1010.34C1147.53,1010.6 1146.01,1010.57 1143.82,1011.67C1142.14,1012.51 1140.69,1013.59 1140.67,1013.47C1137.6,989.901 1141.91,977.409 1151.31,966.709C1169.65,945.835 1195,945.928 1195,945.928C1195,945.928 1220.7,945.763 1239.05,966.637C1248.45,977.337 1252.75,989.829 1249.69,1013.39C1249.67,1013.51 1248.22,1012.44 1246.54,1011.6C1244.35,1010.5 1242.83,1010.53 1242.85,1010.27C1243.25,1003.84 1246.43,988.73 1233.3,971.96C1217.73,952.09 1195,953.264 1195,953.264Z" style="fill:rgb(0,45,60);"/>
                    <g transform="matrix(-1,0,0,1,2390.36,-0.0720235)">
                        <path d="M1145.5,1013.71C1141.61,1015.34 1139.93,1017.14 1139.11,1020.34C1138.62,1022.23 1138.97,1025.28 1139.19,1028.36C1139.42,1031.74 1139.57,1035.17 1140.28,1037.36C1141.83,1042.1 1147.05,1046.58 1148.86,1044.86C1149.17,1044.56 1149.93,1044.33 1149.67,1043.33C1148.86,1040.3 1147.73,1032.9 1147.42,1029.28C1146.88,1023.02 1146.85,1017.7 1147.16,1013.92C1147.2,1013.41 1146.13,1013.44 1145.5,1013.71Z" style="fill:rgb(0,45,60);"/>
                    </g>
                    <g transform="matrix(-1,0,0,1,2390.37,0.126096)">
                        <path d="M1166.38,1002.82C1168.52,1004.82 1173.45,1045.48 1169.35,1052.64C1167.63,1055.63 1155.4,1052.78 1154.02,1050.74C1148.64,1042.77 1147.58,1010.58 1149.84,1007.31C1153.4,1002.16 1163.67,1000.28 1166.38,1002.82Z" style="fill:rgb(0,45,60);"/>
                    </g>
                </g>
            </g>
        </g>
    </g>
</svg>
